<svg width="3000" height="315" viewBox="0 0 3000 315" fill="none" xmlns="http://www.w3.org/2000/svg">
<rect width="3000" height="315" fill="#9536F4"/>
<path d="M1077.55 202H1066.27V118.909H1046.45C1041.42 118.909 1037.38 119.682 1034.32 121.227C1031.26 122.742 1029.03 124.894 1027.64 127.682C1026.24 130.47 1025.55 133.727 1025.55 137.455C1025.55 141.182 1026.23 144.394 1027.59 147.091C1028.98 149.758 1031.2 151.818 1034.23 153.273C1037.29 154.727 1041.3 155.455 1046.27 155.455H1071.36V165.636H1045.91C1038.7 165.636 1032.77 164.439 1028.14 162.045C1023.5 159.621 1020.06 156.288 1017.82 152.045C1015.58 147.803 1014.45 142.939 1014.45 137.455C1014.45 131.97 1015.58 127.076 1017.82 122.773C1020.06 118.47 1023.52 115.091 1028.18 112.636C1032.85 110.152 1038.82 108.909 1046.09 108.909H1077.55V202ZM1033.73 160.182H1046.45L1023.91 202H1010.82L1033.73 160.182ZM1098.69 202V132.182H1109.42V162.545H1116.51L1141.6 132.182H1155.42L1127.24 165.818L1155.78 202H1141.97L1119.06 172.545H1109.42V202H1098.69ZM1167.44 202V132.182H1178.17V202H1167.44ZM1172.9 120.545C1170.81 120.545 1169 119.833 1167.49 118.409C1166 116.985 1165.26 115.273 1165.26 113.273C1165.26 111.273 1166 109.561 1167.49 108.136C1169 106.712 1170.81 106 1172.9 106C1174.99 106 1176.78 106.712 1178.26 108.136C1179.78 109.561 1180.53 111.273 1180.53 113.273C1180.53 115.273 1179.78 116.985 1178.26 118.409C1176.78 119.833 1174.99 120.545 1172.9 120.545ZM1226.18 203.455C1219.64 203.455 1214 201.909 1209.27 198.818C1204.55 195.727 1200.91 191.47 1198.36 186.045C1195.82 180.621 1194.55 174.424 1194.55 167.455C1194.55 160.364 1195.85 154.106 1198.45 148.682C1201.09 143.227 1204.76 138.97 1209.45 135.909C1214.18 132.818 1219.7 131.273 1226 131.273C1230.91 131.273 1235.33 132.182 1239.27 134C1243.21 135.818 1246.44 138.364 1248.95 141.636C1251.47 144.909 1253.03 148.727 1253.64 153.091H1242.91C1242.09 149.909 1240.27 147.091 1237.45 144.636C1234.67 142.152 1230.91 140.909 1226.18 140.909C1222 140.909 1218.33 142 1215.18 144.182C1212.06 146.333 1209.62 149.379 1207.86 153.318C1206.14 157.227 1205.27 161.818 1205.27 167.091C1205.27 172.485 1206.12 177.182 1207.82 181.182C1209.55 185.182 1211.97 188.288 1215.09 190.5C1218.24 192.712 1221.94 193.818 1226.18 193.818C1228.97 193.818 1231.5 193.333 1233.77 192.364C1236.05 191.394 1237.97 190 1239.55 188.182C1241.12 186.364 1242.24 184.182 1242.91 181.636H1253.64C1253.03 185.758 1251.53 189.47 1249.14 192.773C1246.77 196.045 1243.64 198.652 1239.73 200.591C1235.85 202.5 1231.33 203.455 1226.18 203.455ZM1278.59 157.455H1298.59C1306.77 157.455 1313.03 159.53 1317.36 163.682C1321.7 167.833 1323.86 173.091 1323.86 179.455C1323.86 183.636 1322.89 187.439 1320.95 190.864C1319.02 194.258 1316.17 196.97 1312.41 199C1308.65 201 1304.05 202 1298.59 202H1269.32V132.182H1280.05V192H1298.59C1302.83 192 1306.32 190.879 1309.05 188.636C1311.77 186.394 1313.14 183.515 1313.14 180C1313.14 176.303 1311.77 173.288 1309.05 170.955C1306.32 168.621 1302.83 167.455 1298.59 167.455H1278.59V157.455ZM1372.19 142.182V132.182H1428.92V142.182H1406.01V202H1395.28V142.182H1372.19ZM1444.57 228.182V132.182H1454.93V143.273H1456.2C1456.99 142.061 1458.08 140.515 1459.48 138.636C1460.9 136.727 1462.93 135.03 1465.57 133.545C1468.23 132.03 1471.84 131.273 1476.39 131.273C1482.27 131.273 1487.45 132.742 1491.93 135.682C1496.42 138.621 1499.92 142.788 1502.43 148.182C1504.95 153.576 1506.2 159.939 1506.2 167.273C1506.2 174.667 1504.95 181.076 1502.43 186.5C1499.92 191.894 1496.43 196.076 1491.98 199.045C1487.52 201.985 1482.39 203.455 1476.57 203.455C1472.08 203.455 1468.49 202.712 1465.8 201.227C1463.1 199.712 1461.02 198 1459.57 196.091C1458.11 194.152 1456.99 192.545 1456.2 191.273H1455.3V228.182H1444.57ZM1455.11 167.091C1455.11 172.364 1455.89 177.015 1457.43 181.045C1458.98 185.045 1461.23 188.182 1464.2 190.455C1467.17 192.697 1470.81 193.818 1475.11 193.818C1479.6 193.818 1483.34 192.636 1486.34 190.273C1489.37 187.879 1491.64 184.667 1493.16 180.636C1494.7 176.576 1495.48 172.061 1495.48 167.091C1495.48 162.182 1494.72 157.758 1493.2 153.818C1491.72 149.848 1489.46 146.712 1486.43 144.409C1483.43 142.076 1479.66 140.909 1475.11 140.909C1470.75 140.909 1467.08 142.015 1464.11 144.227C1461.14 146.409 1458.9 149.47 1457.39 153.409C1455.87 157.318 1455.11 161.879 1455.11 167.091ZM1551.84 203.455C1545.11 203.455 1539.31 201.97 1534.43 199C1529.58 196 1525.84 191.818 1523.2 186.455C1520.6 181.061 1519.3 174.788 1519.3 167.636C1519.3 160.485 1520.6 154.182 1523.2 148.727C1525.84 143.242 1529.51 138.97 1534.2 135.909C1538.93 132.818 1544.45 131.273 1550.75 131.273C1554.39 131.273 1557.98 131.879 1561.52 133.091C1565.07 134.303 1568.3 136.273 1571.2 139C1574.11 141.697 1576.43 145.273 1578.16 149.727C1579.89 154.182 1580.75 159.667 1580.75 166.182V170.727H1526.93V161.455H1569.84C1569.84 157.515 1569.05 154 1567.48 150.909C1565.93 147.818 1563.72 145.379 1560.84 143.591C1557.99 141.803 1554.63 140.909 1550.75 140.909C1546.48 140.909 1542.78 141.97 1539.66 144.091C1536.57 146.182 1534.19 148.909 1532.52 152.273C1530.86 155.636 1530.02 159.242 1530.02 163.091V169.273C1530.02 174.545 1530.93 179.015 1532.75 182.682C1534.6 186.318 1537.16 189.091 1540.43 191C1543.7 192.879 1547.51 193.818 1551.84 193.818C1554.66 193.818 1557.2 193.424 1559.48 192.636C1561.78 191.818 1563.77 190.606 1565.43 189C1567.1 187.364 1568.39 185.333 1569.3 182.909L1579.66 185.818C1578.57 189.333 1576.73 192.424 1574.16 195.091C1571.58 197.727 1568.4 199.788 1564.61 201.273C1560.83 202.727 1556.57 203.455 1551.84 203.455ZM1597.07 202V132.182H1607.8V162.545H1614.89L1639.98 132.182H1653.8L1625.61 165.818L1654.16 202H1640.34L1617.43 172.545H1607.8V202H1597.07ZM1676.55 186.182L1710.18 132.182H1722.55V202H1711.82V148L1678.36 202H1665.82V132.182H1676.55V186.182ZM1786.19 132.182L1802.92 160.727L1819.65 132.182H1832.01L1809.47 167.091L1832.01 202H1819.65L1802.92 174.909L1786.19 202H1773.83L1796.01 167.091L1773.83 132.182H1786.19ZM1842.95 184.182H1854.41C1854.65 187.333 1856.08 189.727 1858.68 191.364C1861.32 193 1864.74 193.818 1868.95 193.818C1873.26 193.818 1876.94 192.939 1880 191.182C1883.06 189.394 1884.59 186.515 1884.59 182.545C1884.59 180.212 1884.02 178.182 1882.86 176.455C1881.71 174.697 1880.09 173.333 1878 172.364C1875.91 171.394 1873.44 170.909 1870.59 170.909H1858.59V161.273H1870.59C1874.86 161.273 1878.02 160.303 1880.05 158.364C1882.11 156.424 1883.14 154 1883.14 151.091C1883.14 147.97 1882.03 145.47 1879.82 143.591C1877.61 141.682 1874.47 140.727 1870.41 140.727C1866.32 140.727 1862.91 141.652 1860.18 143.5C1857.45 145.318 1856.02 147.667 1855.86 150.545H1844.59C1844.71 146.788 1845.86 143.47 1848.05 140.591C1850.23 137.682 1853.2 135.409 1856.95 133.773C1860.71 132.106 1865.02 131.273 1869.86 131.273C1874.77 131.273 1879.03 132.136 1882.64 133.864C1886.27 135.561 1889.08 137.879 1891.05 140.818C1893.05 143.727 1894.05 147.03 1894.05 150.727C1894.05 154.667 1892.94 157.848 1890.73 160.273C1888.52 162.697 1885.74 164.424 1882.41 165.455V166.182C1885.05 166.364 1887.33 167.212 1889.27 168.727C1891.24 170.212 1892.77 172.167 1893.86 174.591C1894.95 176.985 1895.5 179.636 1895.5 182.545C1895.5 186.788 1894.36 190.485 1892.09 193.636C1889.82 196.758 1886.7 199.182 1882.73 200.909C1878.76 202.606 1874.23 203.455 1869.14 203.455C1864.2 203.455 1859.77 202.652 1855.86 201.045C1851.95 199.409 1848.85 197.152 1846.55 194.273C1844.27 191.364 1843.08 188 1842.95 184.182Z" fill="white"/>
</svg>
