<svg width="93" height="55" viewBox="0 0 93 55" fill="none" xmlns="http://www.w3.org/2000/svg">
<g filter="url(#filter0_b_1340_62479)">
<g filter="url(#filter1_d_1340_62479)">
<path d="M4 23.5C4 10.5213 14.5213 0 27.5 0H65.5C78.4787 0 89 10.5213 89 23.5C89 36.4787 78.4787 47 65.5 47H27.5C14.5213 47 4 36.4787 4 23.5Z" fill="#9536F4"/>
</g>
<path d="M34.4148 27H33.3068L36.5114 18.2727H37.6023L40.8068 27H39.6989L37.0909 19.6534H37.0227L34.4148 27ZM34.8239 23.5909H39.2898V24.5284H34.8239V23.5909ZM42.1662 27V18.2727H43.1719V21.4943H43.2571C43.331 21.3807 43.4332 21.2358 43.5639 21.0597C43.6974 20.8807 43.8878 20.7216 44.1349 20.5824C44.3849 20.4403 44.723 20.3693 45.1491 20.3693C45.7003 20.3693 46.1861 20.5071 46.6065 20.7827C47.027 21.0582 47.3551 21.4489 47.5909 21.9545C47.8267 22.4602 47.9446 23.0568 47.9446 23.7443C47.9446 24.4375 47.8267 25.0384 47.5909 25.5469C47.3551 26.0526 47.0284 26.4446 46.6108 26.723C46.1932 26.9986 45.7116 27.1364 45.1662 27.1364C44.7457 27.1364 44.4091 27.0668 44.1562 26.9276C43.9034 26.7855 43.7088 26.625 43.5724 26.446C43.4361 26.2642 43.331 26.1136 43.2571 25.9943H43.1378V27H42.1662ZM43.1548 23.7273C43.1548 24.2216 43.2273 24.6577 43.3722 25.0355C43.517 25.4105 43.7287 25.7045 44.0071 25.9176C44.2855 26.1278 44.6264 26.233 45.0298 26.233C45.4503 26.233 45.8011 26.1222 46.0824 25.9006C46.3665 25.6761 46.5795 25.375 46.7216 24.9972C46.8665 24.6165 46.9389 24.1932 46.9389 23.7273C46.9389 23.267 46.8679 22.8523 46.7259 22.483C46.5866 22.1108 46.375 21.8168 46.0909 21.6009C45.8097 21.3821 45.456 21.2727 45.0298 21.2727C44.6207 21.2727 44.277 21.3764 43.9986 21.5838C43.7202 21.7884 43.5099 22.0753 43.3679 22.4446C43.2259 22.8111 43.1548 23.2386 43.1548 23.7273ZM52.142 27.1364C51.5511 27.1364 51.0327 26.9957 50.5866 26.7145C50.1435 26.4332 49.7969 26.0398 49.5469 25.5341C49.2997 25.0284 49.1761 24.4375 49.1761 23.7614C49.1761 23.0795 49.2997 22.4844 49.5469 21.9759C49.7969 21.4673 50.1435 21.0724 50.5866 20.7912C51.0327 20.5099 51.5511 20.3693 52.142 20.3693C52.733 20.3693 53.25 20.5099 53.6932 20.7912C54.1392 21.0724 54.4858 21.4673 54.733 21.9759C54.983 22.4844 55.108 23.0795 55.108 23.7614C55.108 24.4375 54.983 25.0284 54.733 25.5341C54.4858 26.0398 54.1392 26.4332 53.6932 26.7145C53.25 26.9957 52.733 27.1364 52.142 27.1364ZM52.142 26.233C52.5909 26.233 52.9602 26.1179 53.25 25.8878C53.5398 25.6577 53.7543 25.3551 53.8935 24.9801C54.0327 24.6051 54.1023 24.1989 54.1023 23.7614C54.1023 23.3239 54.0327 22.9162 53.8935 22.5384C53.7543 22.1605 53.5398 21.8551 53.25 21.6222C52.9602 21.3892 52.5909 21.2727 52.142 21.2727C51.6932 21.2727 51.3239 21.3892 51.0341 21.6222C50.7443 21.8551 50.5298 22.1605 50.3906 22.5384C50.2514 22.9162 50.1818 23.3239 50.1818 23.7614C50.1818 24.1989 50.2514 24.6051 50.3906 24.9801C50.5298 25.3551 50.7443 25.6577 51.0341 25.8878C51.3239 26.1179 51.6932 26.233 52.142 26.233ZM60.7681 24.3239V20.4545H61.7738V27H60.7681V25.892H60.6999C60.5465 26.2244 60.3079 26.5071 59.984 26.7401C59.6602 26.9702 59.2511 27.0852 58.7567 27.0852C58.3477 27.0852 57.984 26.9957 57.6658 26.8168C57.3477 26.6349 57.0977 26.3622 56.9158 25.9986C56.734 25.6321 56.6431 25.1705 56.6431 24.6136V20.4545H57.6488V24.5455C57.6488 25.0227 57.7823 25.4034 58.0494 25.6875C58.3192 25.9716 58.663 26.1136 59.0806 26.1136C59.3306 26.1136 59.5849 26.0497 59.8434 25.9219C60.1048 25.794 60.3235 25.598 60.4996 25.3338C60.6786 25.0696 60.7681 24.733 60.7681 24.3239ZM66.4624 20.4545V21.3068H63.0703V20.4545H66.4624ZM64.0589 18.8864H65.0646V25.125C65.0646 25.4091 65.1058 25.6222 65.1882 25.7642C65.2734 25.9034 65.3814 25.9972 65.5121 26.0455C65.6456 26.0909 65.7862 26.1136 65.9339 26.1136C66.0447 26.1136 66.1357 26.108 66.2067 26.0966C66.2777 26.0824 66.3345 26.071 66.3771 26.0625L66.5817 26.9659C66.5135 26.9915 66.4183 27.017 66.2962 27.0426C66.174 27.071 66.0192 27.0852 65.8317 27.0852C65.5476 27.0852 65.2692 27.0241 64.9964 26.902C64.7266 26.7798 64.5021 26.5938 64.3232 26.3438C64.147 26.0938 64.0589 25.7784 64.0589 25.3977V18.8864ZM75.4751 24.3239V20.4545H76.4808V27H75.4751V25.892H75.407C75.2536 26.2244 75.0149 26.5071 74.6911 26.7401C74.3672 26.9702 73.9581 27.0852 73.4638 27.0852C73.0547 27.0852 72.6911 26.9957 72.3729 26.8168C72.0547 26.6349 71.8047 26.3622 71.6229 25.9986C71.4411 25.6321 71.3501 25.1705 71.3501 24.6136V20.4545H72.3558V24.5455C72.3558 25.0227 72.4893 25.4034 72.7564 25.6875C73.0263 25.9716 73.37 26.1136 73.7876 26.1136C74.0376 26.1136 74.2919 26.0497 74.5504 25.9219C74.8118 25.794 75.0305 25.598 75.2067 25.3338C75.3857 25.0696 75.4751 24.733 75.4751 24.3239ZM82.9592 21.9205L82.0558 22.1761C81.9989 22.0256 81.9151 21.8793 81.8043 21.7372C81.6964 21.5923 81.5487 21.473 81.3612 21.3793C81.1737 21.2855 80.9336 21.2386 80.641 21.2386C80.2404 21.2386 79.9066 21.331 79.6396 21.5156C79.3754 21.6974 79.2433 21.929 79.2433 22.2102C79.2433 22.4602 79.3342 22.6577 79.516 22.8026C79.6978 22.9474 79.9819 23.0682 80.3683 23.1648L81.3398 23.4034C81.9251 23.5455 82.3612 23.7628 82.6481 24.0554C82.935 24.3452 83.0785 24.7187 83.0785 25.1761C83.0785 25.5511 82.9705 25.8864 82.7546 26.1818C82.5415 26.4773 82.2433 26.7102 81.8597 26.8807C81.4762 27.0511 81.0302 27.1364 80.5217 27.1364C79.854 27.1364 79.3015 26.9915 78.864 26.7017C78.4265 26.4119 78.1495 25.9886 78.033 25.4318L78.9876 25.1932C79.0785 25.5455 79.2504 25.8097 79.5032 25.9858C79.7589 26.1619 80.0927 26.25 80.5046 26.25C80.9734 26.25 81.3455 26.1506 81.6211 25.9517C81.8995 25.75 82.0387 25.5085 82.0387 25.2273C82.0387 25 81.9592 24.8097 81.8001 24.6562C81.641 24.5 81.3967 24.3835 81.0671 24.3068L79.9762 24.0511C79.3768 23.9091 78.9364 23.6889 78.6552 23.3906C78.3768 23.0895 78.2376 22.7131 78.2376 22.2614C78.2376 21.892 78.3413 21.5653 78.5487 21.2812C78.7589 20.9972 79.0444 20.7741 79.4052 20.6122C79.7688 20.4503 80.1808 20.3693 80.641 20.3693C81.2887 20.3693 81.7972 20.5114 82.1665 20.7955C82.5387 21.0795 82.8029 21.4545 82.9592 21.9205Z" fill="white"/>
</g>
<path d="M21 26.6667C20.3407 26.6667 19.6963 26.4516 19.1481 26.0487C18.5999 25.6458 18.1727 25.0732 17.9204 24.4032C17.6681 23.7332 17.6021 22.9959 17.7307 22.2847C17.8593 21.5734 18.1768 20.9201 18.643 20.4073C19.1092 19.8945 19.7031 19.5453 20.3497 19.4038C20.9963 19.2623 21.6665 19.3349 22.2756 19.6124C22.8847 19.89 23.4053 20.3599 23.7716 20.9629C24.1378 21.5659 24.3333 22.2748 24.3333 23C24.3333 23.9725 23.9821 24.9051 23.357 25.5927C22.7319 26.2804 21.8841 26.6667 21 26.6667ZM21 21.1667C20.6704 21.1667 20.3481 21.2742 20.074 21.4756C19.8 21.6771 19.5863 21.9634 19.4602 22.2984C19.3341 22.6334 19.301 23.002 19.3654 23.3577C19.4297 23.7133 19.5884 24.04 19.8215 24.2964C20.0546 24.5528 20.3515 24.7274 20.6748 24.7981C20.9982 24.8688 21.3333 24.8325 21.6378 24.6938C21.9423 24.555 22.2026 24.32 22.3858 24.0185C22.5689 23.7171 22.6667 23.3626 22.6667 23C22.6667 22.5138 22.4911 22.0475 22.1785 21.7036C21.8659 21.3598 21.442 21.1667 21 21.1667ZM26 33.0833C26 31.6246 25.4732 30.2257 24.5355 29.1942C23.5979 28.1628 22.3261 27.5833 21 27.5833C19.6739 27.5833 18.4021 28.1628 17.4645 29.1942C16.5268 30.2257 16 31.6246 16 33.0833C16 33.3265 16.0878 33.5596 16.2441 33.7315C16.4004 33.9034 16.6123 34 16.8333 34C17.0543 34 17.2663 33.9034 17.4226 33.7315C17.5789 33.5596 17.6667 33.3265 17.6667 33.0833C17.6667 32.1109 18.0179 31.1782 18.643 30.4906C19.2681 29.803 20.1159 29.4167 21 29.4167C21.8841 29.4167 22.7319 29.803 23.357 30.4906C23.9821 31.1782 24.3333 32.1109 24.3333 33.0833C24.3333 33.3265 24.4211 33.5596 24.5774 33.7315C24.7337 33.9034 24.9457 34 25.1667 34C25.3877 34 25.5996 33.9034 25.7559 33.7315C25.9122 33.5596 26 33.3265 26 33.0833ZM26 19.3333C25.3407 19.3333 24.6963 19.1183 24.1481 18.7154C23.5999 18.3125 23.1727 17.7398 22.9204 17.0698C22.6681 16.3998 22.6021 15.6626 22.7307 14.9513C22.8593 14.2401 23.1768 13.5867 23.643 13.0739C24.1092 12.5612 24.7031 12.2119 25.3497 12.0705C25.9963 11.929 26.6665 12.0016 27.2756 12.2791C27.8847 12.5566 28.4053 13.0266 28.7716 13.6296C29.1378 14.2326 29.3333 14.9415 29.3333 15.6667C29.3333 16.6391 28.9821 17.5718 28.357 18.2594C27.7319 18.947 26.8841 19.3333 26 19.3333ZM26 13.8333C25.6704 13.8333 25.3481 13.9409 25.074 14.1423C24.8 14.3438 24.5863 14.6301 24.4602 14.9651C24.3341 15.3001 24.301 15.6687 24.3654 16.0243C24.4297 16.38 24.5884 16.7066 24.8215 16.963C25.0546 17.2194 25.3515 17.394 25.6748 17.4648C25.9982 17.5355 26.3333 17.4992 26.6378 17.3604C26.9423 17.2217 27.2026 16.9867 27.3858 16.6852C27.5689 16.3837 27.6667 16.0293 27.6667 15.6667C27.6667 15.1804 27.4911 14.7141 27.1785 14.3703C26.8659 14.0265 26.442 13.8333 26 13.8333ZM31 25.75C30.9987 24.2918 30.4715 22.8937 29.5341 21.8625C28.5967 20.8314 27.3257 20.2515 26 20.25C25.779 20.25 25.567 20.3466 25.4107 20.5185C25.2545 20.6904 25.1667 20.9236 25.1667 21.1667C25.1667 21.4098 25.2545 21.6429 25.4107 21.8148C25.567 21.9868 25.779 22.0833 26 22.0833C26.8841 22.0833 27.7319 22.4696 28.357 23.1573C28.9821 23.8449 29.3333 24.7775 29.3333 25.75C29.3333 25.9931 29.4211 26.2263 29.5774 26.3982C29.7337 26.5701 29.9457 26.6667 30.1667 26.6667C30.3877 26.6667 30.5996 26.5701 30.7559 26.3982C30.9122 26.2263 31 25.9931 31 25.75ZM16 19.3333C15.3407 19.3333 14.6963 19.1183 14.1481 18.7154C13.5999 18.3125 13.1727 17.7398 12.9204 17.0698C12.6681 16.3998 12.6021 15.6626 12.7307 14.9513C12.8593 14.2401 13.1768 13.5867 13.643 13.0739C14.1092 12.5612 14.7031 12.2119 15.3497 12.0705C15.9963 11.929 16.6665 12.0016 17.2756 12.2791C17.8847 12.5566 18.4053 13.0266 18.7716 13.6296C19.1378 14.2326 19.3333 14.9415 19.3333 15.6667C19.3333 16.6391 18.9821 17.5718 18.357 18.2594C17.7319 18.947 16.8841 19.3333 16 19.3333ZM16 13.8333C15.6704 13.8333 15.3481 13.9409 15.074 14.1423C14.8 14.3438 14.5863 14.6301 14.4602 14.9651C14.3341 15.3001 14.301 15.6687 14.3654 16.0243C14.4297 16.38 14.5884 16.7066 14.8215 16.963C15.0546 17.2194 15.3515 17.394 15.6748 17.4648C15.9982 17.5355 16.3333 17.4992 16.6378 17.3604C16.9423 17.2217 17.2026 16.9867 17.3858 16.6852C17.5689 16.3837 17.6667 16.0293 17.6667 15.6667C17.6667 15.1804 17.4911 14.7141 17.1785 14.3703C16.866 14.0265 16.442 13.8333 16 13.8333ZM12.6667 25.75C12.6667 24.7775 13.0179 23.8449 13.643 23.1573C14.2681 22.4696 15.1159 22.0833 16 22.0833C16.221 22.0833 16.433 21.9868 16.5893 21.8148C16.7455 21.6429 16.8333 21.4098 16.8333 21.1667C16.8333 20.9236 16.7455 20.6904 16.5893 20.5185C16.433 20.3466 16.221 20.25 16 20.25C14.6743 20.2515 13.4033 20.8314 12.4659 21.8625C11.5285 22.8937 11.0013 24.2918 11 25.75C11 25.9931 11.0878 26.2263 11.2441 26.3982C11.4004 26.5701 11.6123 26.6667 11.8333 26.6667C12.0543 26.6667 12.2663 26.5701 12.4226 26.3982C12.5789 26.2263 12.6667 25.9931 12.6667 25.75Z" fill="black"/>
<defs>
<filter id="filter0_b_1340_62479" x="0" y="-4" width="93" height="55" filterUnits="userSpaceOnUse" color-interpolation-filters="sRGB">
<feFlood flood-opacity="0" result="BackgroundImageFix"/>
<feGaussianBlur in="BackgroundImageFix" stdDeviation="2"/>
<feComposite in2="SourceAlpha" operator="in" result="effect1_backgroundBlur_1340_62479"/>
<feBlend mode="normal" in="SourceGraphic" in2="effect1_backgroundBlur_1340_62479" result="shape"/>
</filter>
<filter id="filter1_d_1340_62479" x="0" y="0" width="93" height="55" filterUnits="userSpaceOnUse" color-interpolation-filters="sRGB">
<feFlood flood-opacity="0" result="BackgroundImageFix"/>
<feColorMatrix in="SourceAlpha" type="matrix" values="0 0 0 0 0 0 0 0 0 0 0 0 0 0 0 0 0 0 127 0" result="hardAlpha"/>
<feOffset dy="4"/>
<feGaussianBlur stdDeviation="2"/>
<feComposite in2="hardAlpha" operator="out"/>
<feColorMatrix type="matrix" values="0 0 0 0 0 0 0 0 0 0 0 0 0 0 0 0 0 0 0.25 0"/>
<feBlend mode="normal" in2="BackgroundImageFix" result="effect1_dropShadow_1340_62479"/>
<feBlend mode="normal" in="SourceGraphic" in2="effect1_dropShadow_1340_62479" result="shape"/>
</filter>
</defs>
</svg>
