<svg width="93" height="55" viewBox="0 0 93 55" fill="none" xmlns="http://www.w3.org/2000/svg">
<g filter="url(#filter0_d_1340_62481)">
<rect x="4" width="85" height="47" rx="23.5" fill="#9536F4"/>
</g>
<path d="M44.0568 26V17.2727H45.1136V25.0625H49.1705V26H44.0568ZM53.3295 26.1364C52.7386 26.1364 52.2202 25.9957 51.7741 25.7145C51.331 25.4332 50.9844 25.0398 50.7344 24.5341C50.4872 24.0284 50.3636 23.4375 50.3636 22.7614C50.3636 22.0795 50.4872 21.4844 50.7344 20.9759C50.9844 20.4673 51.331 20.0724 51.7741 19.7912C52.2202 19.5099 52.7386 19.3693 53.3295 19.3693C53.9205 19.3693 54.4375 19.5099 54.8807 19.7912C55.3267 20.0724 55.6733 20.4673 55.9205 20.9759C56.1705 21.4844 56.2955 22.0795 56.2955 22.7614C56.2955 23.4375 56.1705 24.0284 55.9205 24.5341C55.6733 25.0398 55.3267 25.4332 54.8807 25.7145C54.4375 25.9957 53.9205 26.1364 53.3295 26.1364ZM53.3295 25.233C53.7784 25.233 54.1477 25.1179 54.4375 24.8878C54.7273 24.6577 54.9418 24.3551 55.081 23.9801C55.2202 23.6051 55.2898 23.1989 55.2898 22.7614C55.2898 22.3239 55.2202 21.9162 55.081 21.5384C54.9418 21.1605 54.7273 20.8551 54.4375 20.6222C54.1477 20.3892 53.7784 20.2727 53.3295 20.2727C52.8807 20.2727 52.5114 20.3892 52.2216 20.6222C51.9318 20.8551 51.7173 21.1605 51.5781 21.5384C51.4389 21.9162 51.3693 22.3239 51.3693 22.7614C51.3693 23.1989 51.4389 23.6051 51.5781 23.9801C51.7173 24.3551 51.9318 24.6577 52.2216 24.8878C52.5114 25.1179 52.8807 25.233 53.3295 25.233ZM60.4727 28.5909C59.9869 28.5909 59.5692 28.5284 59.2198 28.4034C58.8704 28.2812 58.5792 28.1193 58.3462 27.9176C58.1161 27.7188 57.9329 27.5057 57.7965 27.2784L58.5977 26.7159C58.6886 26.8352 58.8036 26.9716 58.9428 27.125C59.082 27.2812 59.2724 27.4162 59.5138 27.5298C59.7582 27.6463 60.0778 27.7045 60.4727 27.7045C61.0011 27.7045 61.4371 27.5767 61.7809 27.321C62.1246 27.0653 62.2965 26.6648 62.2965 26.1193V24.7898H62.2113C62.1374 24.9091 62.0323 25.0568 61.896 25.233C61.7624 25.4062 61.5692 25.5611 61.3164 25.6974C61.0664 25.831 60.7283 25.8977 60.3022 25.8977C59.7738 25.8977 59.2994 25.7727 58.8789 25.5227C58.4613 25.2727 58.1303 24.9091 57.886 24.4318C57.6445 23.9545 57.5238 23.375 57.5238 22.6932C57.5238 22.0227 57.6417 21.4389 57.8775 20.9418C58.1133 20.4418 58.4414 20.0554 58.8619 19.7827C59.2823 19.5071 59.7681 19.3693 60.3192 19.3693C60.7454 19.3693 61.0835 19.4403 61.3335 19.5824C61.5863 19.7216 61.7795 19.8807 61.913 20.0597C62.0494 20.2358 62.1545 20.3807 62.2283 20.4943H62.3306V19.4545H63.3022V26.1875C63.3022 26.75 63.1744 27.2074 62.9187 27.5597C62.6658 27.9148 62.3249 28.1747 61.896 28.3395C61.4698 28.5071 60.9954 28.5909 60.4727 28.5909ZM60.4386 24.9943C60.842 24.9943 61.1829 24.902 61.4613 24.7173C61.7397 24.5327 61.9513 24.267 62.0962 23.9205C62.2411 23.5739 62.3136 23.1591 62.3136 22.6761C62.3136 22.2045 62.2425 21.7884 62.1005 21.4276C61.9585 21.0668 61.7482 20.7841 61.4698 20.5795C61.1914 20.375 60.8477 20.2727 60.4386 20.2727C60.0124 20.2727 59.6573 20.3807 59.3732 20.5966C59.092 20.8125 58.8803 21.1023 58.7383 21.4659C58.5991 21.8295 58.5295 22.233 58.5295 22.6761C58.5295 23.1307 58.6005 23.5327 58.7425 23.8821C58.8874 24.2287 59.1005 24.5014 59.3817 24.7003C59.6658 24.8963 60.0181 24.9943 60.4386 24.9943ZM68.5181 26V19.4545H69.5238V26H68.5181ZM69.0295 18.3636C68.8335 18.3636 68.6644 18.2969 68.5224 18.1634C68.3832 18.0298 68.3136 17.8693 68.3136 17.6818C68.3136 17.4943 68.3832 17.3338 68.5224 17.2003C68.6644 17.0668 68.8335 17 69.0295 17C69.2255 17 69.3931 17.0668 69.5323 17.2003C69.6744 17.3338 69.7454 17.4943 69.7454 17.6818C69.7454 17.8693 69.6744 18.0298 69.5323 18.1634C69.3931 18.2969 69.2255 18.3636 69.0295 18.3636ZM72.3714 22.0625V26H71.3658V19.4545H72.3374V20.4773H72.4226C72.576 20.1449 72.8089 19.8778 73.1214 19.6761C73.4339 19.4716 73.8374 19.3693 74.3317 19.3693C74.7749 19.3693 75.1626 19.4602 75.495 19.642C75.8274 19.821 76.0859 20.0938 76.2706 20.4602C76.4553 20.8239 76.5476 21.2841 76.5476 21.8409V26H75.5419V21.9091C75.5419 21.3949 75.4084 20.9943 75.1413 20.7074C74.8743 20.4176 74.5078 20.2727 74.0419 20.2727C73.7209 20.2727 73.4339 20.3423 73.1811 20.4815C72.9311 20.6207 72.7337 20.8239 72.5888 21.0909C72.4439 21.358 72.3714 21.6818 72.3714 22.0625Z" fill="white"/>
<path d="M44.0568 26V17.2727H45.1136V25.0625H49.1705V26H44.0568ZM53.3295 26.1364C52.7386 26.1364 52.2202 25.9957 51.7741 25.7145C51.331 25.4332 50.9844 25.0398 50.7344 24.5341C50.4872 24.0284 50.3636 23.4375 50.3636 22.7614C50.3636 22.0795 50.4872 21.4844 50.7344 20.9759C50.9844 20.4673 51.331 20.0724 51.7741 19.7912C52.2202 19.5099 52.7386 19.3693 53.3295 19.3693C53.9205 19.3693 54.4375 19.5099 54.8807 19.7912C55.3267 20.0724 55.6733 20.4673 55.9205 20.9759C56.1705 21.4844 56.2955 22.0795 56.2955 22.7614C56.2955 23.4375 56.1705 24.0284 55.9205 24.5341C55.6733 25.0398 55.3267 25.4332 54.8807 25.7145C54.4375 25.9957 53.9205 26.1364 53.3295 26.1364ZM53.3295 25.233C53.7784 25.233 54.1477 25.1179 54.4375 24.8878C54.7273 24.6577 54.9418 24.3551 55.081 23.9801C55.2202 23.6051 55.2898 23.1989 55.2898 22.7614C55.2898 22.3239 55.2202 21.9162 55.081 21.5384C54.9418 21.1605 54.7273 20.8551 54.4375 20.6222C54.1477 20.3892 53.7784 20.2727 53.3295 20.2727C52.8807 20.2727 52.5114 20.3892 52.2216 20.6222C51.9318 20.8551 51.7173 21.1605 51.5781 21.5384C51.4389 21.9162 51.3693 22.3239 51.3693 22.7614C51.3693 23.1989 51.4389 23.6051 51.5781 23.9801C51.7173 24.3551 51.9318 24.6577 52.2216 24.8878C52.5114 25.1179 52.8807 25.233 53.3295 25.233ZM60.4727 28.5909C59.9869 28.5909 59.5692 28.5284 59.2198 28.4034C58.8704 28.2812 58.5792 28.1193 58.3462 27.9176C58.1161 27.7188 57.9329 27.5057 57.7965 27.2784L58.5977 26.7159C58.6886 26.8352 58.8036 26.9716 58.9428 27.125C59.082 27.2812 59.2724 27.4162 59.5138 27.5298C59.7582 27.6463 60.0778 27.7045 60.4727 27.7045C61.0011 27.7045 61.4371 27.5767 61.7809 27.321C62.1246 27.0653 62.2965 26.6648 62.2965 26.1193V24.7898H62.2113C62.1374 24.9091 62.0323 25.0568 61.896 25.233C61.7624 25.4062 61.5692 25.5611 61.3164 25.6974C61.0664 25.831 60.7283 25.8977 60.3022 25.8977C59.7738 25.8977 59.2994 25.7727 58.8789 25.5227C58.4613 25.2727 58.1303 24.9091 57.886 24.4318C57.6445 23.9545 57.5238 23.375 57.5238 22.6932C57.5238 22.0227 57.6417 21.4389 57.8775 20.9418C58.1133 20.4418 58.4414 20.0554 58.8619 19.7827C59.2823 19.5071 59.7681 19.3693 60.3192 19.3693C60.7454 19.3693 61.0835 19.4403 61.3335 19.5824C61.5863 19.7216 61.7795 19.8807 61.913 20.0597C62.0494 20.2358 62.1545 20.3807 62.2283 20.4943H62.3306V19.4545H63.3022V26.1875C63.3022 26.75 63.1744 27.2074 62.9187 27.5597C62.6658 27.9148 62.3249 28.1747 61.896 28.3395C61.4698 28.5071 60.9954 28.5909 60.4727 28.5909ZM60.4386 24.9943C60.842 24.9943 61.1829 24.902 61.4613 24.7173C61.7397 24.5327 61.9513 24.267 62.0962 23.9205C62.2411 23.5739 62.3136 23.1591 62.3136 22.6761C62.3136 22.2045 62.2425 21.7884 62.1005 21.4276C61.9585 21.0668 61.7482 20.7841 61.4698 20.5795C61.1914 20.375 60.8477 20.2727 60.4386 20.2727C60.0124 20.2727 59.6573 20.3807 59.3732 20.5966C59.092 20.8125 58.8803 21.1023 58.7383 21.4659C58.5991 21.8295 58.5295 22.233 58.5295 22.6761C58.5295 23.1307 58.6005 23.5327 58.7425 23.8821C58.8874 24.2287 59.1005 24.5014 59.3817 24.7003C59.6658 24.8963 60.0181 24.9943 60.4386 24.9943ZM68.5181 26V19.4545H69.5238V26H68.5181ZM69.0295 18.3636C68.8335 18.3636 68.6644 18.2969 68.5224 18.1634C68.3832 18.0298 68.3136 17.8693 68.3136 17.6818C68.3136 17.4943 68.3832 17.3338 68.5224 17.2003C68.6644 17.0668 68.8335 17 69.0295 17C69.2255 17 69.3931 17.0668 69.5323 17.2003C69.6744 17.3338 69.7454 17.4943 69.7454 17.6818C69.7454 17.8693 69.6744 18.0298 69.5323 18.1634C69.3931 18.2969 69.2255 18.3636 69.0295 18.3636ZM72.3714 22.0625V26H71.3658V19.4545H72.3374V20.4773H72.4226C72.576 20.1449 72.8089 19.8778 73.1214 19.6761C73.4339 19.4716 73.8374 19.3693 74.3317 19.3693C74.7749 19.3693 75.1626 19.4602 75.495 19.642C75.8274 19.821 76.0859 20.0938 76.2706 20.4602C76.4553 20.8239 76.5476 21.2841 76.5476 21.8409V26H75.5419V21.9091C75.5419 21.3949 75.4084 20.9943 75.1413 20.7074C74.8743 20.4176 74.5078 20.2727 74.0419 20.2727C73.7209 20.2727 73.4339 20.3423 73.1811 20.4815C72.9311 20.6207 72.7337 20.8239 72.5888 21.0909C72.4439 21.358 72.3714 21.6818 72.3714 22.0625Z" fill="white"/>
<path d="M38 33.9997H36V29.3764C35.9992 28.6577 35.6874 27.9686 35.133 27.4604C34.5787 26.9521 33.827 26.6663 33.043 26.6656H24.957C24.173 26.6663 23.4213 26.9521 22.867 27.4604C22.3126 27.9686 22.0008 28.6577 22 29.3764V33.9997H20V29.3764C20.0016 28.1716 20.5244 27.0166 21.4536 26.1647C22.3829 25.3127 23.6428 24.8335 24.957 24.832H33.043C34.3572 24.8335 35.6171 25.3127 36.5464 26.1647C37.4756 27.0166 37.9984 28.1716 38 29.3764V33.9997Z" fill="black"/>
<path d="M29 23.0012C27.8133 23.0012 26.6533 22.6786 25.6666 22.0742C24.6799 21.4697 23.9109 20.6107 23.4567 19.6056C23.0026 18.6005 22.8838 17.4945 23.1153 16.4275C23.3468 15.3605 23.9182 14.3804 24.7574 13.6111C25.5965 12.8418 26.6656 12.3179 27.8295 12.1057C28.9933 11.8935 30.1997 12.0024 31.2961 12.4187C32.3925 12.835 33.3295 13.5401 33.9888 14.4446C34.6481 15.3492 35 16.4127 35 17.5006C34.9984 18.959 34.3658 20.3572 33.2409 21.3885C32.116 22.4197 30.5908 22.9997 29 23.0012ZM29 13.8335C28.2089 13.8335 27.4355 14.0486 26.7777 14.4515C26.1199 14.8545 25.6072 15.4272 25.3045 16.0973C25.0017 16.7673 24.9225 17.5047 25.0769 18.216C25.2312 18.9273 25.6122 19.5807 26.1716 20.0936C26.731 20.6064 27.4437 20.9557 28.2196 21.0972C28.9956 21.2387 29.7998 21.1661 30.5307 20.8885C31.2616 20.611 31.8864 20.1409 32.3259 19.5379C32.7654 18.9349 33 18.2259 33 17.5006C33 16.528 32.5786 15.5953 31.8284 14.9076C31.0783 14.2199 30.0609 13.8335 29 13.8335Z" fill="black"/>
<defs>
<filter id="filter0_d_1340_62481" x="0" y="0" width="93" height="55" filterUnits="userSpaceOnUse" color-interpolation-filters="sRGB">
<feFlood flood-opacity="0" result="BackgroundImageFix"/>
<feColorMatrix in="SourceAlpha" type="matrix" values="0 0 0 0 0 0 0 0 0 0 0 0 0 0 0 0 0 0 127 0" result="hardAlpha"/>
<feOffset dy="4"/>
<feGaussianBlur stdDeviation="2"/>
<feComposite in2="hardAlpha" operator="out"/>
<feColorMatrix type="matrix" values="0 0 0 0 0 0 0 0 0 0 0 0 0 0 0 0 0 0 0.25 0"/>
<feBlend mode="normal" in2="BackgroundImageFix" result="effect1_dropShadow_1340_62481"/>
<feBlend mode="normal" in="SourceGraphic" in2="effect1_dropShadow_1340_62481" result="shape"/>
</filter>
</defs>
</svg>
