<svg width="168" height="98" viewBox="0 0 168 98" fill="none" xmlns="http://www.w3.org/2000/svg">
<g filter="url(#filter0_b_1350_54677)">
<g filter="url(#filter1_d_1350_54677)">
<path d="M4 30C4 13.4315 17.4315 0 34 0H134C150.569 0 164 13.4315 164 30V60C164 76.5685 150.569 90 134 90H34C17.4315 90 4 76.5685 4 60V30Z" fill="#9536F4"/>
<path d="M5.5 30C5.5 14.2599 18.2599 1.5 34 1.5H134C149.74 1.5 162.5 14.2599 162.5 30V60C162.5 75.7401 149.74 88.5 134 88.5H34C18.2599 88.5 5.5 75.7401 5.5 60V30Z" stroke="white" stroke-width="3"/>
</g>
</g>
<g clip-path="url(#clip0_1350_54677)">
<path d="M59.3321 59.6805L78.7928 80.2361L86.2905 78.3725C87.6891 78.0241 88.9813 77.3899 90.0497 76.5272C91.118 75.6646 91.9288 74.6009 92.4084 73.4326C92.888 72.2644 93.0213 71.0286 92.7961 69.8374C92.5709 68.6461 91.9944 67.5372 91.1189 66.6112L80.3791 55.2682L87.892 53.4008C91.94 52.399 96.2076 52.778 99.7589 54.4546C103.31 56.1312 105.855 58.9686 106.835 62.3443L112.941 60.8267L98.2239 9.87678L92.1183 11.3944C93.0889 14.7725 92.4143 18.4101 90.2425 21.5092C88.0708 24.6084 84.5791 26.9159 80.5335 27.9259L56.1111 33.9962C53.6821 34.6 51.5852 35.9842 50.2817 37.8443C48.9782 39.7045 48.5748 41.8882 49.1603 43.9151L52.1037 54.1051C52.5271 55.5458 53.4306 56.834 54.7098 57.8206C55.9889 58.8072 57.5914 59.452 59.3321 59.6805ZM86.1352 70.0643C86.3751 70.3169 86.5333 70.6197 86.5954 70.9452C86.6575 71.2706 86.6215 71.6084 86.4906 71.9277C86.3598 72.2471 86.1383 72.5378 85.8463 72.7736C85.5543 73.0093 85.2011 73.1826 84.8188 73.2775L81.2897 74.1547L66.6415 58.6828L73.6965 56.9292L86.1352 70.0643ZM55.2659 42.3975C55.0707 41.7219 55.2052 40.994 55.6397 40.3739C56.0742 39.7539 56.7732 39.2925 57.5828 39.0912L82.0052 33.0208C84.8512 32.314 87.531 31.1382 89.8859 29.5628C92.2409 27.9875 94.2233 26.0446 95.7159 23.8491L103.238 49.8896C100.762 48.6805 97.9977 47.9174 95.1091 47.6454C92.2205 47.3733 89.266 47.5979 86.4203 48.3058L61.9979 54.3762C61.1883 54.5775 60.3343 54.5021 59.6237 54.1666C58.9132 53.8312 58.4044 53.2632 58.2093 52.5875L55.2659 42.3975ZM122.888 46.6328L114.219 42.5402L117.495 37.8651L126.164 41.9577L122.888 46.6328ZM114.633 27.524L109.275 24.9948L114.489 17.5557L119.846 20.0849L114.633 27.524ZM114.005 30.5279L123.163 28.2515L124.635 33.3464L115.477 35.6228L114.005 30.5279Z" fill="white"/>
</g>
<rect x="1.87197" y="1.07926" width="72.4966" height="60.6395" transform="matrix(0.970471 -0.241218 0.277508 0.960723 43.0292 24.0291)" stroke="white" stroke-width="3"/>
<defs>
<filter id="filter0_b_1350_54677" x="0" y="-4" width="168" height="98" filterUnits="userSpaceOnUse" color-interpolation-filters="sRGB">
<feFlood flood-opacity="0" result="BackgroundImageFix"/>
<feGaussianBlur in="BackgroundImageFix" stdDeviation="2"/>
<feComposite in2="SourceAlpha" operator="in" result="effect1_backgroundBlur_1350_54677"/>
<feBlend mode="normal" in="SourceGraphic" in2="effect1_backgroundBlur_1350_54677" result="shape"/>
</filter>
<filter id="filter1_d_1350_54677" x="0" y="0" width="168" height="98" filterUnits="userSpaceOnUse" color-interpolation-filters="sRGB">
<feFlood flood-opacity="0" result="BackgroundImageFix"/>
<feColorMatrix in="SourceAlpha" type="matrix" values="0 0 0 0 0 0 0 0 0 0 0 0 0 0 0 0 0 0 127 0" result="hardAlpha"/>
<feOffset dy="4"/>
<feGaussianBlur stdDeviation="2"/>
<feComposite in2="hardAlpha" operator="out"/>
<feColorMatrix type="matrix" values="0 0 0 0 0 0 0 0 0 0 0 0 0 0 0 0 0 0 0.25 0"/>
<feBlend mode="normal" in2="BackgroundImageFix" result="effect1_dropShadow_1350_54677"/>
<feBlend mode="normal" in="SourceGraphic" in2="effect1_dropShadow_1350_54677" result="shape"/>
</filter>
<clipPath id="clip0_1350_54677">
<rect width="75.4966" height="63.6395" transform="matrix(0.970471 -0.241218 0.277508 0.960723 43.2734 23.5352)" fill="white"/>
</clipPath>
</defs>
</svg>
