<svg width="93" height="55" viewBox="0 0 93 55" fill="none" xmlns="http://www.w3.org/2000/svg">
<g filter="url(#filter0_d_1340_62480)">
<rect x="4" width="85" height="47" rx="23.5" fill="#9536F4"/>
</g>
<path d="M44.0568 17.2727H45.3182L48.2841 24.517H48.3864L51.3523 17.2727H52.6136V26H51.625V19.3693H51.5398L48.8125 26H47.858L45.1307 19.3693H45.0455V26H44.0568V17.2727ZM56.5224 26.1534C56.1076 26.1534 55.7312 26.0753 55.3931 25.919C55.055 25.7599 54.7866 25.5312 54.5877 25.233C54.3888 24.9318 54.2894 24.5682 54.2894 24.142C54.2894 23.767 54.3633 23.4631 54.511 23.2301C54.6587 22.9943 54.8562 22.8097 55.1033 22.6761C55.3505 22.5426 55.6232 22.4432 55.9215 22.3778C56.2227 22.3097 56.5252 22.2557 56.8292 22.2159C57.2269 22.1648 57.5494 22.1264 57.7965 22.1009C58.0465 22.0724 58.2283 22.0256 58.342 21.9602C58.4585 21.8949 58.5167 21.7812 58.5167 21.6193V21.5852C58.5167 21.1648 58.4016 20.8381 58.1715 20.6051C57.9442 20.3722 57.5991 20.2557 57.136 20.2557C56.6559 20.2557 56.2795 20.3608 56.0067 20.571C55.734 20.7812 55.5423 21.0057 55.4315 21.2443L54.4769 20.9034C54.6474 20.5057 54.8746 20.196 55.1587 19.9744C55.4457 19.75 55.7582 19.5937 56.0962 19.5057C56.4371 19.4148 56.7724 19.3693 57.1019 19.3693C57.3121 19.3693 57.5536 19.3949 57.8263 19.446C58.1019 19.4943 58.3675 19.5952 58.6232 19.7486C58.8817 19.902 59.0962 20.1335 59.2667 20.4432C59.4371 20.7528 59.5224 21.1676 59.5224 21.6875V26H58.5167V25.1136H58.4656C58.3974 25.2557 58.2837 25.4077 58.1246 25.5696C57.9656 25.7315 57.7539 25.8693 57.4897 25.983C57.2255 26.0966 56.9031 26.1534 56.5224 26.1534ZM56.6758 25.25C57.0735 25.25 57.4087 25.1719 57.6815 25.0156C57.957 24.8594 58.1644 24.6577 58.3036 24.4105C58.4457 24.1634 58.5167 23.9034 58.5167 23.6307V22.7102C58.4741 22.7614 58.3803 22.8082 58.2354 22.8509C58.0934 22.8906 57.9286 22.9261 57.7411 22.9574C57.5565 22.9858 57.3761 23.0114 57.1999 23.0341C57.0266 23.054 56.886 23.071 56.7781 23.0852C56.5167 23.1193 56.2724 23.1747 56.0451 23.2514C55.8207 23.3253 55.6388 23.4375 55.4996 23.5881C55.3633 23.7358 55.2951 23.9375 55.2951 24.1932C55.2951 24.5426 55.4244 24.8068 55.6829 24.9858C55.9442 25.1619 56.2752 25.25 56.6758 25.25ZM61.358 26V19.4545H62.3636V26H61.358ZM61.8693 18.3636C61.6733 18.3636 61.5043 18.2969 61.3622 18.1634C61.223 18.0298 61.1534 17.8693 61.1534 17.6818C61.1534 17.4943 61.223 17.3338 61.3622 17.2003C61.5043 17.0668 61.6733 17 61.8693 17C62.0653 17 62.233 17.0668 62.3722 17.2003C62.5142 17.3338 62.5852 17.4943 62.5852 17.6818C62.5852 17.8693 62.5142 18.0298 62.3722 18.1634C62.233 18.2969 62.0653 18.3636 61.8693 18.3636ZM65.2113 22.0625V26H64.2056V19.4545H65.1772V20.4773H65.2624C65.4158 20.1449 65.6488 19.8778 65.9613 19.6761C66.2738 19.4716 66.6772 19.3693 67.1715 19.3693C67.6147 19.3693 68.0025 19.4602 68.3349 19.642C68.6673 19.821 68.9258 20.0938 69.1104 20.4602C69.2951 20.8239 69.3874 21.2841 69.3874 21.8409V26H68.3817V21.9091C68.3817 21.3949 68.2482 20.9943 67.9812 20.7074C67.7141 20.4176 67.3477 20.2727 66.8817 20.2727C66.5607 20.2727 66.2738 20.3423 66.021 20.4815C65.771 20.6207 65.5735 20.8239 65.4286 21.0909C65.2837 21.358 65.2113 21.6818 65.2113 22.0625Z" fill="white"/>
<g clip-path="url(#clip0_1340_62480)">
<path d="M35.1943 18.0672L28.2413 10.4812C27.3808 9.54515 26.2152 9.01953 25 9.01953C23.7848 9.01953 22.6192 9.54515 21.7587 10.4812L14.8058 18.0672C14.5495 18.3449 14.3463 18.6755 14.208 19.0395C14.0697 19.4036 13.999 19.794 14 20.1882V30.0052C14 30.8008 14.2897 31.5639 14.8055 32.1265C15.3212 32.6891 16.0207 33.0052 16.75 33.0052H33.25C33.9794 33.0052 34.6788 32.6891 35.1946 32.1265C35.7103 31.5639 36 30.8008 36 30.0052V20.1882C36.001 19.794 35.9303 19.4036 35.792 19.0395C35.6537 18.6755 35.4505 18.3449 35.1943 18.0672ZM27.75 31.0052H22.25V27.0712C22.25 26.2755 22.5397 25.5124 23.0555 24.9498C23.5712 24.3872 24.2707 24.0712 25 24.0712C25.7294 24.0712 26.4288 24.3872 26.9446 24.9498C27.4603 25.5124 27.75 26.2755 27.75 27.0712V31.0052ZM34.1667 30.0052C34.1667 30.2704 34.0701 30.5247 33.8982 30.7123C33.7263 30.8998 33.4931 31.0052 33.25 31.0052H29.5833V27.0712C29.5833 25.7451 29.1005 24.4733 28.2409 23.5356C27.3814 22.5979 26.2156 22.0712 25 22.0712C23.7844 22.0712 22.6186 22.5979 21.7591 23.5356C20.8996 24.4733 20.4167 25.7451 20.4167 27.0712V31.0052H16.75C16.5069 31.0052 16.2737 30.8998 16.1018 30.7123C15.9299 30.5247 15.8333 30.2704 15.8333 30.0052V20.1882C15.8342 19.9231 15.9307 19.6691 16.1019 19.4812L23.0548 11.8982C23.5716 11.3371 24.271 11.0221 25 11.0221C25.7291 11.0221 26.4285 11.3371 26.9452 11.8982L33.8981 19.4842C34.0687 19.6714 34.1651 19.9242 34.1667 20.1882V30.0052Z" fill="black"/>
</g>
<defs>
<filter id="filter0_d_1340_62480" x="0" y="0" width="93" height="55" filterUnits="userSpaceOnUse" color-interpolation-filters="sRGB">
<feFlood flood-opacity="0" result="BackgroundImageFix"/>
<feColorMatrix in="SourceAlpha" type="matrix" values="0 0 0 0 0 0 0 0 0 0 0 0 0 0 0 0 0 0 127 0" result="hardAlpha"/>
<feOffset dy="4"/>
<feGaussianBlur stdDeviation="2"/>
<feComposite in2="hardAlpha" operator="out"/>
<feColorMatrix type="matrix" values="0 0 0 0 0 0 0 0 0 0 0 0 0 0 0 0 0 0 0.25 0"/>
<feBlend mode="normal" in2="BackgroundImageFix" result="effect1_dropShadow_1340_62480"/>
<feBlend mode="normal" in="SourceGraphic" in2="effect1_dropShadow_1340_62480" result="shape"/>
</filter>
<clipPath id="clip0_1340_62480">
<rect width="22" height="24" fill="white" transform="translate(14 9)"/>
</clipPath>
</defs>
</svg>
