<svg width="138" height="56" viewBox="0 0 138 56" fill="none" xmlns="http://www.w3.org/2000/svg">
<g filter="url(#filter0_b_1527_54887)">
<g filter="url(#filter1_d_1527_54887)">
<path d="M4 24C4 10.7452 14.7452 0 28 0H110C123.255 0 134 10.7452 134 24V24C134 37.2548 123.255 48 110 48H28C14.7452 48 4 37.2548 4 24V24Z" fill="#9536F4"/>
</g>
<path d="M36.4205 23.6364C36.4205 24.5568 36.2543 25.3523 35.9219 26.0227C35.5895 26.6932 35.1335 27.2102 34.554 27.5739C33.9744 27.9375 33.3125 28.1193 32.5682 28.1193C31.8239 28.1193 31.1619 27.9375 30.5824 27.5739C30.0028 27.2102 29.5469 26.6932 29.2145 26.0227C28.8821 25.3523 28.7159 24.5568 28.7159 23.6364C28.7159 22.7159 28.8821 21.9205 29.2145 21.25C29.5469 20.5795 30.0028 20.0625 30.5824 19.6989C31.1619 19.3352 31.8239 19.1534 32.5682 19.1534C33.3125 19.1534 33.9744 19.3352 34.554 19.6989C35.1335 20.0625 35.5895 20.5795 35.9219 21.25C36.2543 21.9205 36.4205 22.7159 36.4205 23.6364ZM35.3977 23.6364C35.3977 22.8807 35.2713 22.2429 35.0185 21.723C34.7685 21.2031 34.429 20.8097 34 20.5426C33.5739 20.2756 33.0966 20.142 32.5682 20.142C32.0398 20.142 31.5611 20.2756 31.1321 20.5426C30.706 20.8097 30.3665 21.2031 30.1136 21.723C29.8636 22.2429 29.7386 22.8807 29.7386 23.6364C29.7386 24.392 29.8636 25.0298 30.1136 25.5497C30.3665 26.0696 30.706 26.4631 31.1321 26.7301C31.5611 26.9972 32.0398 27.1307 32.5682 27.1307C33.0966 27.1307 33.5739 26.9972 34 26.7301C34.429 26.4631 34.7685 26.0696 35.0185 25.5497C35.2713 25.0298 35.3977 24.392 35.3977 23.6364ZM40.9077 21.4545V22.3068H37.5156V21.4545H40.9077ZM38.5043 19.8864H39.5099V26.125C39.5099 26.4091 39.5511 26.6222 39.6335 26.7642C39.7188 26.9034 39.8267 26.9972 39.9574 27.0455C40.0909 27.0909 40.2315 27.1136 40.3793 27.1136C40.4901 27.1136 40.581 27.108 40.652 27.0966C40.723 27.0824 40.7798 27.071 40.8224 27.0625L41.027 27.9659C40.9588 27.9915 40.8636 28.017 40.7415 28.0426C40.6193 28.071 40.4645 28.0852 40.277 28.0852C39.9929 28.0852 39.7145 28.0241 39.4418 27.902C39.1719 27.7798 38.9474 27.5938 38.7685 27.3438C38.5923 27.0938 38.5043 26.7784 38.5043 26.3977V19.8864ZM43.5668 24.0625V28H42.5611V19.2727H43.5668V22.4773H43.652C43.8054 22.1392 44.0355 21.8707 44.3423 21.6719C44.652 21.4702 45.0639 21.3693 45.5781 21.3693C46.0241 21.3693 46.4148 21.4588 46.75 21.6378C47.0852 21.8139 47.3452 22.0852 47.5298 22.4517C47.7173 22.8153 47.8111 23.2784 47.8111 23.8409V28H46.8054V23.9091C46.8054 23.3892 46.6705 22.9872 46.4006 22.7031C46.1335 22.4162 45.7628 22.2727 45.2884 22.2727C44.9588 22.2727 44.6634 22.3423 44.402 22.4815C44.1435 22.6207 43.9389 22.8239 43.7884 23.0909C43.6406 23.358 43.5668 23.6818 43.5668 24.0625ZM52.3952 28.1364C51.7646 28.1364 51.2205 27.9972 50.7631 27.7188C50.3086 27.4375 49.9577 27.0455 49.7106 26.5426C49.4663 26.0369 49.3441 25.4489 49.3441 24.7784C49.3441 24.108 49.4663 23.517 49.7106 23.0057C49.9577 22.4915 50.3015 22.0909 50.7418 21.804C51.185 21.5142 51.7021 21.3693 52.293 21.3693C52.6339 21.3693 52.9705 21.4261 53.3029 21.5398C53.6353 21.6534 53.9379 21.8381 54.2106 22.0938C54.4833 22.3466 54.7006 22.6818 54.8626 23.0994C55.0245 23.517 55.1055 24.0312 55.1055 24.642V25.0682H50.06V24.1989H54.0827C54.0827 23.8295 54.0089 23.5 53.8612 23.2102C53.7163 22.9205 53.5089 22.6918 53.239 22.5241C52.9719 22.3565 52.6566 22.2727 52.293 22.2727C51.8924 22.2727 51.5458 22.3722 51.2532 22.571C50.9634 22.767 50.7404 23.0227 50.5842 23.3381C50.4279 23.6534 50.3498 23.9915 50.3498 24.3523V24.9318C50.3498 25.4261 50.435 25.8452 50.6055 26.1889C50.7788 26.5298 51.0188 26.7898 51.3256 26.9688C51.6325 27.1449 51.989 27.233 52.3952 27.233C52.6594 27.233 52.8981 27.196 53.1112 27.1222C53.3271 27.0455 53.5131 26.9318 53.6694 26.7812C53.8256 26.6278 53.9464 26.4375 54.0316 26.2102L55.0032 26.483C54.9009 26.8125 54.729 27.1023 54.4876 27.3523C54.2461 27.5994 53.9478 27.7926 53.5927 27.9318C53.2376 28.0682 52.8384 28.1364 52.3952 28.1364ZM56.6353 28V21.4545H57.6069V22.4432H57.6751C57.7944 22.1193 58.0103 21.8565 58.3228 21.6548C58.6353 21.4531 58.9876 21.3523 59.3796 21.3523C59.4535 21.3523 59.5458 21.3537 59.6566 21.3565C59.7674 21.3594 59.8512 21.3636 59.908 21.3693V22.392C59.8739 22.3835 59.7958 22.3707 59.6737 22.3537C59.5543 22.3338 59.4279 22.3239 59.2944 22.3239C58.9762 22.3239 58.6921 22.3906 58.4421 22.5241C58.195 22.6548 57.9989 22.8366 57.854 23.0696C57.712 23.2997 57.641 23.5625 57.641 23.858V28H56.6353ZM64.4751 30.4545V21.4545H65.4467V22.4943H65.5661C65.6399 22.3807 65.7422 22.2358 65.8729 22.0597C66.0064 21.8807 66.1967 21.7216 66.4439 21.5824C66.6939 21.4403 67.032 21.3693 67.4581 21.3693C68.0092 21.3693 68.495 21.5071 68.9155 21.7827C69.3359 22.0582 69.6641 22.4489 69.8999 22.9545C70.1357 23.4602 70.2536 24.0568 70.2536 24.7443C70.2536 25.4375 70.1357 26.0384 69.8999 26.5469C69.6641 27.0526 69.3374 27.4446 68.9197 27.723C68.5021 27.9986 68.0206 28.1364 67.4751 28.1364C67.0547 28.1364 66.718 28.0668 66.4652 27.9276C66.2124 27.7855 66.0178 27.625 65.8814 27.446C65.745 27.2642 65.6399 27.1136 65.5661 26.9943H65.4808V30.4545H64.4751ZM65.4638 24.7273C65.4638 25.2216 65.5362 25.6577 65.6811 26.0355C65.826 26.4105 66.0376 26.7045 66.3161 26.9176C66.5945 27.1278 66.9354 27.233 67.3388 27.233C67.7592 27.233 68.1101 27.1222 68.3913 26.9006C68.6754 26.6761 68.8885 26.375 69.0305 25.9972C69.1754 25.6165 69.2479 25.1932 69.2479 24.7273C69.2479 24.267 69.1768 23.8523 69.0348 23.483C68.8956 23.1108 68.6839 22.8168 68.3999 22.6009C68.1186 22.3821 67.7649 22.2727 67.3388 22.2727C66.9297 22.2727 66.5859 22.3764 66.3075 22.5838C66.0291 22.7884 65.8189 23.0753 65.6768 23.4446C65.5348 23.8111 65.4638 24.2386 65.4638 24.7273ZM71.7876 28V21.4545H72.7592V22.4432H72.8274C72.9467 22.1193 73.1626 21.8565 73.4751 21.6548C73.7876 21.4531 74.1399 21.3523 74.532 21.3523C74.6058 21.3523 74.6982 21.3537 74.8089 21.3565C74.9197 21.3594 75.0036 21.3636 75.0604 21.3693V22.392C75.0263 22.3835 74.9482 22.3707 74.826 22.3537C74.7067 22.3338 74.5803 22.3239 74.4467 22.3239C74.1286 22.3239 73.8445 22.3906 73.5945 22.5241C73.3473 22.6548 73.1513 22.8366 73.0064 23.0696C72.8643 23.2997 72.7933 23.5625 72.7933 23.858V28H71.7876ZM78.7124 28.1364C78.1214 28.1364 77.603 27.9957 77.157 27.7145C76.7138 27.4332 76.3672 27.0398 76.1172 26.5341C75.87 26.0284 75.7464 25.4375 75.7464 24.7614C75.7464 24.0795 75.87 23.4844 76.1172 22.9759C76.3672 22.4673 76.7138 22.0724 77.157 21.7912C77.603 21.5099 78.1214 21.3693 78.7124 21.3693C79.3033 21.3693 79.8203 21.5099 80.2635 21.7912C80.7095 22.0724 81.0561 22.4673 81.3033 22.9759C81.5533 23.4844 81.6783 24.0795 81.6783 24.7614C81.6783 25.4375 81.5533 26.0284 81.3033 26.5341C81.0561 27.0398 80.7095 27.4332 80.2635 27.7145C79.8203 27.9957 79.3033 28.1364 78.7124 28.1364ZM78.7124 27.233C79.1612 27.233 79.5305 27.1179 79.8203 26.8878C80.1101 26.6577 80.3246 26.3551 80.4638 25.9801C80.603 25.6051 80.6726 25.1989 80.6726 24.7614C80.6726 24.3239 80.603 23.9162 80.4638 23.5384C80.3246 23.1605 80.1101 22.8551 79.8203 22.6222C79.5305 22.3892 79.1612 22.2727 78.7124 22.2727C78.2635 22.2727 77.8942 22.3892 77.6044 22.6222C77.3146 22.8551 77.1001 23.1605 76.9609 23.5384C76.8217 23.9162 76.7521 24.3239 76.7521 24.7614C76.7521 25.1989 76.8217 25.6051 76.9609 25.9801C77.1001 26.3551 77.3146 26.6577 77.6044 26.8878C77.8942 27.1179 78.2635 27.233 78.7124 27.233ZM83.2134 21.4545H84.2191V28.4773C84.2191 28.8807 84.1495 29.2301 84.0103 29.5256C83.8739 29.821 83.6665 30.0497 83.3881 30.2116C83.1126 30.3736 82.7646 30.4545 82.3441 30.4545C82.31 30.4545 82.2759 30.4545 82.2418 30.4545C82.2077 30.4545 82.1737 30.4545 82.1396 30.4545V29.517C82.1737 29.517 82.2049 29.517 82.2333 29.517C82.2617 29.517 82.293 29.517 82.3271 29.517C82.6339 29.517 82.8583 29.4261 83.0004 29.2443C83.1424 29.0653 83.2134 28.8097 83.2134 28.4773V21.4545ZM83.7077 20.3636C83.5117 20.3636 83.3427 20.2969 83.2006 20.1634C83.0614 20.0298 82.9918 19.8693 82.9918 19.6818C82.9918 19.4943 83.0614 19.3338 83.2006 19.2003C83.3427 19.0668 83.5117 19 83.7077 19C83.9038 19 84.0714 19.0668 84.2106 19.2003C84.3526 19.3338 84.4237 19.4943 84.4237 19.6818C84.4237 19.8693 84.3526 20.0298 84.2106 20.1634C84.0714 20.2969 83.9038 20.3636 83.7077 20.3636ZM88.8054 28.1364C88.1747 28.1364 87.6307 27.9972 87.1733 27.7188C86.7188 27.4375 86.3679 27.0455 86.1207 26.5426C85.8764 26.0369 85.7543 25.4489 85.7543 24.7784C85.7543 24.108 85.8764 23.517 86.1207 23.0057C86.3679 22.4915 86.7116 22.0909 87.152 21.804C87.5952 21.5142 88.1122 21.3693 88.7031 21.3693C89.044 21.3693 89.3807 21.4261 89.7131 21.5398C90.0455 21.6534 90.348 21.8381 90.6207 22.0938C90.8935 22.3466 91.1108 22.6818 91.2727 23.0994C91.4347 23.517 91.5156 24.0312 91.5156 24.642V25.0682H86.4702V24.1989H90.4929C90.4929 23.8295 90.419 23.5 90.2713 23.2102C90.1264 22.9205 89.919 22.6918 89.6491 22.5241C89.3821 22.3565 89.0668 22.2727 88.7031 22.2727C88.3026 22.2727 87.956 22.3722 87.6634 22.571C87.3736 22.767 87.1506 23.0227 86.9943 23.3381C86.8381 23.6534 86.7599 23.9915 86.7599 24.3523V24.9318C86.7599 25.4261 86.8452 25.8452 87.0156 26.1889C87.1889 26.5298 87.429 26.7898 87.7358 26.9688C88.0426 27.1449 88.3991 27.233 88.8054 27.233C89.0696 27.233 89.3082 27.196 89.5213 27.1222C89.7372 27.0455 89.9233 26.9318 90.0795 26.7812C90.2358 26.6278 90.3565 26.4375 90.4418 26.2102L91.4134 26.483C91.3111 26.8125 91.1392 27.1023 90.8977 27.3523C90.6563 27.5994 90.358 27.7926 90.0028 27.9318C89.6477 28.0682 89.2486 28.1364 88.8054 28.1364ZM95.7045 28.1364C95.0909 28.1364 94.5625 27.9915 94.1193 27.7017C93.6761 27.4119 93.3352 27.0128 93.0966 26.5043C92.858 25.9957 92.7386 25.4148 92.7386 24.7614C92.7386 24.0966 92.8608 23.5099 93.1051 23.0014C93.3523 22.4901 93.696 22.0909 94.1364 21.804C94.5795 21.5142 95.0966 21.3693 95.6875 21.3693C96.1477 21.3693 96.5625 21.4545 96.9318 21.625C97.3011 21.7955 97.6037 22.0341 97.8395 22.3409C98.0753 22.6477 98.2216 23.0057 98.2784 23.4148H97.2727C97.196 23.1165 97.0256 22.8523 96.7614 22.6222C96.5 22.3892 96.1477 22.2727 95.7045 22.2727C95.3125 22.2727 94.9688 22.375 94.6733 22.5795C94.3807 22.7812 94.152 23.0668 93.9872 23.4361C93.8253 23.8026 93.7443 24.233 93.7443 24.7273C93.7443 25.233 93.8239 25.6733 93.983 26.0483C94.1449 26.4233 94.3722 26.7145 94.6648 26.9219C94.9602 27.1293 95.3068 27.233 95.7045 27.233C95.9659 27.233 96.2031 27.1875 96.4162 27.0966C96.6293 27.0057 96.8097 26.875 96.9574 26.7045C97.1051 26.5341 97.2102 26.3295 97.2727 26.0909H98.2784C98.2216 26.4773 98.081 26.8253 97.8565 27.1349C97.6349 27.4418 97.3409 27.6861 96.9744 27.8679C96.6108 28.0469 96.1875 28.1364 95.7045 28.1364ZM102.595 21.4545V22.3068H99.2031V21.4545H102.595ZM100.192 19.8864H101.197V26.125C101.197 26.4091 101.239 26.6222 101.321 26.7642C101.406 26.9034 101.514 26.9972 101.645 27.0455C101.778 27.0909 101.919 27.1136 102.067 27.1136C102.178 27.1136 102.268 27.108 102.339 27.0966C102.411 27.0824 102.467 27.071 102.51 27.0625L102.714 27.9659C102.646 27.9915 102.551 28.017 102.429 28.0426C102.307 28.071 102.152 28.0852 101.964 28.0852C101.68 28.0852 101.402 28.0241 101.129 27.902C100.859 27.7798 100.635 27.5938 100.456 27.3438C100.28 27.0938 100.192 26.7784 100.192 26.3977V19.8864ZM108.627 22.9205L107.724 23.1761C107.667 23.0256 107.583 22.8793 107.472 22.7372C107.364 22.5923 107.217 22.473 107.029 22.3793C106.842 22.2855 106.602 22.2386 106.309 22.2386C105.908 22.2386 105.575 22.331 105.308 22.5156C105.043 22.6974 104.911 22.929 104.911 23.2102C104.911 23.4602 105.002 23.6577 105.184 23.8026C105.366 23.9474 105.65 24.0682 106.036 24.1648L107.008 24.4034C107.593 24.5455 108.029 24.7628 108.316 25.0554C108.603 25.3452 108.746 25.7187 108.746 26.1761C108.746 26.5511 108.638 26.8864 108.423 27.1818C108.21 27.4773 107.911 27.7102 107.528 27.8807C107.144 28.0511 106.698 28.1364 106.19 28.1364C105.522 28.1364 104.969 27.9915 104.532 27.7017C104.094 27.4119 103.817 26.9886 103.701 26.4318L104.656 26.1932C104.746 26.5455 104.918 26.8097 105.171 26.9858C105.427 27.1619 105.761 27.25 106.173 27.25C106.641 27.25 107.013 27.1506 107.289 26.9517C107.567 26.75 107.707 26.5085 107.707 26.2273C107.707 26 107.627 25.8097 107.468 25.6562C107.309 25.5 107.065 25.3835 106.735 25.3068L105.644 25.0511C105.045 24.9091 104.604 24.6889 104.323 24.3906C104.045 24.0895 103.906 23.7131 103.906 23.2614C103.906 22.892 104.009 22.5653 104.217 22.2812C104.427 21.9972 104.712 21.7741 105.073 21.6122C105.437 21.4503 105.849 21.3693 106.309 21.3693C106.957 21.3693 107.465 21.5114 107.835 21.7955C108.207 22.0795 108.471 22.4545 108.627 22.9205Z" fill="white"/>
</g>
<defs>
<filter id="filter0_b_1527_54887" x="0" y="-4" width="138" height="56" filterUnits="userSpaceOnUse" color-interpolation-filters="sRGB">
<feFlood flood-opacity="0" result="BackgroundImageFix"/>
<feGaussianBlur in="BackgroundImageFix" stdDeviation="2"/>
<feComposite in2="SourceAlpha" operator="in" result="effect1_backgroundBlur_1527_54887"/>
<feBlend mode="normal" in="SourceGraphic" in2="effect1_backgroundBlur_1527_54887" result="shape"/>
</filter>
<filter id="filter1_d_1527_54887" x="0" y="0" width="138" height="56" filterUnits="userSpaceOnUse" color-interpolation-filters="sRGB">
<feFlood flood-opacity="0" result="BackgroundImageFix"/>
<feColorMatrix in="SourceAlpha" type="matrix" values="0 0 0 0 0 0 0 0 0 0 0 0 0 0 0 0 0 0 127 0" result="hardAlpha"/>
<feOffset dy="4"/>
<feGaussianBlur stdDeviation="2"/>
<feComposite in2="hardAlpha" operator="out"/>
<feColorMatrix type="matrix" values="0 0 0 0 0 0 0 0 0 0 0 0 0 0 0 0 0 0 0.25 0"/>
<feBlend mode="normal" in2="BackgroundImageFix" result="effect1_dropShadow_1527_54887"/>
<feBlend mode="normal" in="SourceGraphic" in2="effect1_dropShadow_1527_54887" result="shape"/>
</filter>
</defs>
</svg>
